<svg width="37" height="30" viewBox="0 0 37 30" fill="none" xmlns="http://www.w3.org/2000/svg">
<path d="M10.0968 11.2581L7 13.0646L18.871 20.2904V16.6775L10.0968 11.2581Z" fill="#B2A2F5"/>
<path d="M10.0968 17.9677L7 19.7742L18.871 27V23.6451L10.0968 17.9677Z" fill="#B2A2F5"/>
<path d="M18.871 9.70966L7 16.3267V19.7742L18.871 13.0645V9.70966Z" fill="#9179EF"/>
<path d="M18.871 3L7 9.61703V13.0645L18.871 6.35483V3Z" fill="#9179EF"/>
<path d="M18.8711 3V6.35483L27.1291 11.5161L29.9679 9.70967L18.8711 3Z" fill="#B2A2F5"/>
<path d="M18.8711 9.70966V13.0645L27.1291 17.9677L29.9679 15.9032L18.8711 9.70966Z" fill="#B2A2F5"/>
<path d="M18.8711 16.6774L29.9679 9.70966V13.0645L18.8711 20.2903V16.6774Z" fill="#9179EF"/>
<path d="M18.8711 23.6452L29.9679 15.9033V19.2581L18.8711 27V23.6452Z" fill="#9179EF"/>
</svg>
